<svg id="eXYiK3IRTHq1" xmlns="http://www.w3.org/2000/svg" xmlns:xlink="http://www.w3.org/1999/xlink" viewBox="0 0 512 512" shape-rendering="geometricPrecision" text-rendering="geometricPrecision" project-id="39d255362ac34a9aaa161224eb450a8a" export-id="ffc3ced84afc41c89f05b9b15b0aeda3" cached="false">
	<path d="M249,75c-20,1-45,6-64,12-23,8-50,24-57,33l-13,16c-28,29-48,66-50,93c0,6,0,7,2,10c4,4,3,7-2,11-5,3-5,5,0,3c5-3,8-6,8-9c0-4,2-8,5-9s5,2,5,8s1,9,5,11l15,5c16,3,18,3,18,6c0,4-5,7-13,7s-13-2-17-8c-5-7-8-8-19-8h-10c-2-1-2-1-1,1c2,3,4,4,11,3c8-1,11,0,16,7c6,8,10,10,20,10c9,0,10-1,15-8c3-4,3-4,6-4c6,1,28,11,27,12l-1,7-1,13c0,8,1,7-13,9-12,2-27,6-34,9-4,2-6,4-9,8-4,6-5,6-13,3-12.212663-7.924654-21.650619-19.459934-27-33c0-1,4,1,7,4c9,5,14,7,20,5c14-4,13-4,30-2c11,1,18,2,22,1h6l-10-2-19-4c-13-3-18-3-27,1-9,3-12,2-22-4l-6-4-1-6-3-13c-2-7-2-15,0-21l3-15c2-23,14-53,27-73c2-3,2-4,1-5-2-3-18,22-26,40-7.170739,17.544586-11.556942,36.101599-13,55-2,11-1,30,2,39c4,13,16,31,27,39c13,9,26,10,44,3c12-4,20-7,28-8h6l2,4c1,2,3,4,8,7s14,6,20,7l3,1-2,3c-6,8-8,15-7,20c2,9,16,19,24,19c6,0,13-3,24-10l11-7l1,4l5,8l4,3-3,6-10,21c-8,19-8,20,0,20l5,1-3,6c-7,10-8,14-7,16c3,3,5,1,9-7l7-12l17-19-7,17-9,20c0,1,1,2,3,2c3,0,3-1,9-13c7-13,17-30,22-35l4-3-6,14c-8,18-13,34-13,36l3,1c3,0,3,1,9-16c7-19,16-35,26-45c8-8,15-13,27-20c11-5,10-6-3-1-10,4-18,9-27,19-7,6-8,7-6,4c9-16,18-22,41-29c24-7,32-12,44-26c8-9,11-10,33-10c17-1,19,0,16,1l-17,2c-16,1-19,3-26,12-6,9-14,16-21,19l-16,6c-12,4-17,6-27,13-14,9-24,20-28,30-2,5-2,5,5-5c5-7,10-12,21-18c11-7,18-11,32-14l18-6c8-4,19-14,25-23c2-4,5-7,6-7l13-1c13-1,21-3,29-9c11-7,20-20,20-29l2-9c5-11,5-16,5-35c0-16,0-18-3-29-8-30-24-60-48-86-43.039992-47.647171-106.084434-72.123248-170-66h1Zm34,6c38,3,75,17,108,43c13,10,14,13,9,20-3,5-5,5-10,1-13-8-25,2-30,25-4,21-9,30-24,45-9,9-11,12-16,21l-9,14c-5,5-13,9-18,10h-4v-10c0-12-1-15-8-26-3-4-6-9-6-12-4-11-5-35-1-47c2-9,16-22,25-24c3,0,3,0,4,3l1,8-1,6l2-4l1-9c0-12-8-13-23-2l-6,4c0-4,5-19,8-26c6-14,12-14,23-2c8,8,11,15,11,23c0,5,0,6,2,7c5,2,5-11,0-22-4-7-14-18-20-21s-9-2-15,2c-4,5-8,10-10,19-5.161793,18.398677-9.169593,37.101741-12,56l-4-6c-5-9-7-7-3,3l5,11l4,11c1,10,3,15,9,26l7,14c.872562,12.745266-.138302,25.549544-3,38-4,8-12,15-22,20-17,8-19,10-25,14l-13,15c-5.425888,7.801618-12.198382,14.574112-20,20-6,3-4,4,3,0c8-4,15-10,27-22c9-10,19-17,23-17l3,4c2,5,0,11-7,23l-8,16c-3,5-3,6-15,13-15,10-17,11-23,11-4,0-6-1-9-3-5-3-9-8-9-12s6-14,14-22l16-18l17-19c7-7,9-9,8-10-2-4-16,8-32,27-6,8-10,12-13,14-5,2-13,1-23-3-12-6-11-5-11-24l1-21c2-8,3-9,22-15c21-7,23-7,32-4c11,4,11,3,0-4-6-4-17-9-21-9-5,0-5,2,0,3l5,2c2,1,1,2-10,5l-18,5c-8,2-13,1-19-2-16-6-39-13-54-15-8-1-10-3-10-9l-2-10c-2-4-2-5-1-9c2-7,5-11,10-14c6-3,10-9,10-15s-5-9-9-6c-1,1-1,1,1,1c3,0,5,1,5,4c0,5-4,9-10,12s-10,8-12,17c-1,4-2,6-6,9l-5,3c-2-2,1-13,8-30c10-24,23-45,38-60l5-6l3,3c6,5,19,8,26,6l4-3c0-1-2-2-11-2-7-1-14-3-15-6-2-5,5-15,16-22c9-6,24-14,32-17l7-3l4,3l9,3c8,1,12,4,12,6c0,1-2,4-5,6l-7,8-2,3-17-1-25,1-7,1l3,1c3,1,8,2,20,2c24,1,24,1,24,6c2,8,3,10,16,15c11,5,17,14,23,35c4,10,4,12,4,22c0,12,1,17,4,21c2,2,3,2,6,2c4-1,10,1,13,4c3,2,7,10,8,16c1,7,1,14-1,21l-1,7c1,1,6-3,7-6c2-5,2-22,0-29-4-11-12-19-21-20-6,0-7-2-9-12-1-10,3-13,9-7c3,2,5,3,5,1s-3-5-8-8c-4-2-5-4-7-9-5-10-5-13-5-23c0-9,0-12,3-19c3.180766-7.258076,6.181683-14.593649,9-22c2,0,7-6,7-7l-4,2-3,1v-8c-1-7-1-9-3-12-4-6-11-7-19-4-6,2-7,4-4,8c1,3,2,6,2,13l1,10h-2l-5-3c-8-3-6,1,3,7c4,3,6,5,7,9c2,4,3,18,1,19l-4-3c-4-6-7-8-16-12l-8-6-1-8c0-7,1-10,8-15c3-3,4-5,4-7c0-5-3-7-14-9l-7-3c-2-2-2-2,1-3c5-2,28-8,35-8h8c1,2,12,7,13,7v-2c-1-2-3-3-9-5-8-3,21-5,46-3Zm-45,19c3,3,3,3,3,11c0,9-2,17-5,25l-3,4c-2-2-4-12-5-23l-3-14-2-3c4-4,11-4,15,0Zm180,51c10,12,21,28,27,41l6,12-2,1-4,3c-1,1-1,1,2,4c4,4,6,9,9,22c3,11,4,14,3,7-.884953-9.959876-3.244014-19.733131-7-29c2-2,8,16,10,31c1,14,1,27-1,36-3,10-3,10-8,9l-5-1l2,6l3,8c0,7-8,18-16,22l-16,1c-27-1-30-1-35,2-4,2-9,6-14,12-11,12-15,14-37,21l-16,6c-8,3,0-1,10-7l16-9l14-14-6,4-25,14c-28,14-29,15-58,44-24,24-25,25-30,26l-6,1l26-52c5-7,13-16,18-20l4-3l6,6l7,6c3,0,10-4,13-7c4-4,4-5-1-3-4,4-10,5-12,4-2,0-4-2-6-4l-3-4l2-1c4.916531-1.628684,9.925323-2.964362,15-4c2-1,7-3,11-7l14-9c9-5,12-8,12-13s-4-9-9-11c-6-2-25-2-35,0-10,3-14,4-17,8-2,2-2,3-1,9v7l-6,5-10,11-6,15l6-7c3-5,8-10,11-12c12-9,13-11,11-19v-6l7-3c6-2,10-3,23-3c15,0,16,1,18,3c4,3,2,6-8,11-5,2-11,6-14,9-5,4-7,5-15,7-5,2-12,4-14,6-7,3-21,17-27,26-5,8-7,8-9,2-3-7,0-16,10-34c7-12,8-16,8-24l-1-7l5-4c12-7,19-16,21-28c2-7,3-8,8-9c6-1,14-5,20-11l6-5l10,1c14,2,23,0,29-6c6-5,7-10,7-23c1-13,1-13,12-20c8-4,12-8,12-12c0-3-1-3-5,1l-10,7c-13,6-16,11-15,22c2,16-3,23-18,25h-6c-2-2,0-6,7-11c4-2,7-6,8-7c1-2,0-1-6,2-8,4-11,7-14,12-1,4-2,4-4,3l-4-1l2-5c1-3,4-7,14-17l14-16l7-8c8-5,13-11,14-17c1-7,0-9-2-3-1,4-8,12-11,12l-1-2l3-11c3-15,4-17,8-22c4-3,5-4,8-4c8,0,17,10,22,23c2,6,3,8,8,11c6,5,9,10,9,16c1,4,0,4-1,5-6,1-7,1-11,5s-6,9-8,19c-2,17-5,20-15,14-6-3-9-2-16,6-8,10-15,13-29,14-12,1-17,3-23,10-3.838835,4.802429-7.841186,9.471838-12,14c3,0,7-3,11-8c7-7,12-9,22-10h8l2,4c5,10,23,15,34,10c6-3,16-13,22-21c4-6,11-23,10-24l-6,10c-4,8-7,12-13,18-10,11-15,13-23,13s-16-3-19-7l-2-3l6-4c5-2,8-5,14-10c7-9,7-9,16-5c6,3,9,2,13-1c2-3,4-7,5-19c2-10,3-14,6-17c3-2,4-2,8-2c9,1,14,8,17,25c2,11,3,13,13,22l6,7-5,1-8,2c-4,1-4,1-8-5-1-3-2-1,0,4c2,6,5,8,9,5l7-3c6,0,8-2,7-5l-5-9c-8-10-9-11-10-21-2-11-5-17-10-23-5-4-5-6-5-10-1-7-5-15-11-21-5-3-6-6-8-10l-5-10-2-5c0-2,8-11,9-11l8,8ZM154,314c0,3,0,3-9,4l-20,5-22,7c-2,0-1-3,2-6s5-5,12-7c12-3,23-6,31-6c6,0,6,0,6,3Zm283,11l-3,2c-2,1-2,1,0-1l3-1Z" fill="#e6e6e6" />
	<path d="M282,86l9,11l6,3l14-4-7,1h-8l-6-6c-7-6-8-7-8-5Zm12,1c0,2,5,3,16,4c12,2,15,2,8,0l-24-4Zm-88,6l-4,1h3l10-1l6-2h-5l-10,1v1Zm56,1c-3,2-3,3-3,7l2,7c4,7,2,16-6,26-7,8-6,10,1,6c5-4,11-14,12-23c1-3,2-4,4-5c3-1,4-4,1-3-5,2-10-3-10-8c0-3,4-7,8-7c3,0,8,2,11,5s4,2,0-2c-3-4-7-6-12-6-4,0-6,1-8,3Zm73,5h4c2-1,1-1-2-1-2,0-3,0-2,1Zm-17,4c-2,1-1,2,8,2h9c0-1-1-2-3-2h-14Zm34,2l2,8c3,9,4,7,2-3-1-7-3-9-4-5Zm-181,2l-10,6c-8,3-10,5-5,3c7-1,14-4,16-7c4-4,3-6-1-2Zm15,4c-2.969208,1.401564-5.969988,2.735244-9,4c1,2,11-2,14-5l2-2-7,3Zm151-2l10,5c4,2,2-1-3-3l-7-2Z" fill="#e6e6e6" />
	<path d="M328,115c-3,5,2,10,16,17c10,5,10,6,11,9c0,3-1,5-4,9-8,11-9,12-11,23-1,12-3,16-11,23-6,6-10,11-10,14l5-3l9-8c6-5,10-12,11-22l1-10l8-12c7-9,9-11,8-17-1-3-1-3,1-3c4,0,8-3,10-7c3-4,5-5,8-2c3,2,2-1,0-3-3-3-7-3-11,1l-6,5c-9,3-31-7-31-14c0-3-3-3-4,0Zm-33,11c-4,1-9,6-8,6l13-7c1-2-1-1-5,1ZM157,136l7,2l8,2c2,2,1,6-1,10-2,3-3,3-9,4l-9,2-13,2c-11,1-13,2-15,8-2,4,0,10,6,16l6,6c2,1,2,1,1-1-7-10-10-18-8-21c2-4,11-4,15,0c2,2,2,2,2,11v9l6,5l13,13c12,12,24,23,30,27l14,6l8,4h-12c-10,0-12,0-21,3l-10,3-3-3c-2-3-3-4-3-7s1-4,3-4c1,0,2,0,2,2c1,1,1,1,1-1c0-4-3-6-7-4-4,3-4,11,1,17l2,3-2,1c-6,4-18,2-22-3-2-2-2-3-1-5c1-4,1-5-2-2-2,2-2,3-2,6v3l-9-1c-16-2-28-7-30-13-1-7,4-19,13-28c7-8,12-9,19-5l11,5c3,0,11,4,17,7l11,6-18-15c-11-6-22-10-28-10-8,0-14,4-20,12-9,12-12,24-8,31c3,6,23,13,38,13l8,1l5,4c9,3,14,3,26-3s21-8,31-8c18,0,36,9,34,17-2,4-5,8-9,10-4,1-7,2-18,2-15,1-24,3-33,7-9,5-11,9-11,25c0,9,0,12,2,13c2,2,3,0,4-14c0-15,1-16,11-20c9-4,17-5,32-5c12,0,16-1,21-5c9-7,10-19,4-24-4-4-20-13-34-20s-25-14-42-30c-17-15-17-15-17-28c0-10,0-11,2-12c6-4,14-3,17,1l3,12l4,15c5,9,18,19,33,23l10,7l6,5-3-8c-4-10-9-17-11-18v3c2,4,0,6-4,5-9-3-22-13-26-20l-4-15-4-13-3-3l2-4l2-8c0-7-2-8-12-9-6,0-8,0-7,1Z" fill="#e6e6e6" />
	<path d="M188,142l-1,7c0,8,2,17,5,21c2,4,9,12,10,12l-5-10c-5-10-7-17-7-24c0-5-1-7-2-6Zm148,6c-3,3-7,7-10,8l-12,6c-7,3-11,8-13,15-2,6-2,10-1,16c2,6,2,4,2-4c0-13,3-18,21-26c10-5,13-7,16-11c4-5,5-9,3-9-1,0-4,2-6,5Zm-89,2c-3,4-6,23-4,27c2,5,3,2,3-9l2-13c2-2,3-5,1-5h-2Zm-134,8c-8,9-12,17-9,22c1,2,7,4,12,4l7,2c4,4,4,4,3,0-3-4-6-7-12-7-8-2-8-5,1-16l5-8c0-3-2-2-7,3Zm176,7c-5,6-5,6-3,7c3,1,3,1,0,11s-3,25-1,30l7,11-2-11c-2-13-2-19,1-31v-9c-1-3-1-4,1-8c3-8,2-8-3,0Zm-86-4l2,2l8,16l11,19c4,4,4,4,3,1l-19-37c-3-2-5-3-5-1Zm121,12l-1,3c0,3-3,8-6,12-5,5-9,15-11,27l-7,24c0,2,0,2,2,2c4-1,7-8,7-16c2-20,4-27,12-35c5-5,5-5,5-11v-6h-1Zm-161,6l1,4c1,0,2-6,1-8-1-3-2-1-2,3v1ZM87,196h2c1-1,1-1-1-1s-2,0-1,1Zm38,17l-5,8c-2,4-4,8-6,9l-2,3h6c10,2,24,2,25,0c1-1,1-1-3-1-6,0-15-2-17-3v-6l4-9c3-3,2-4-2-1Zm21,13l6,3c3,2,2,0,0-3l-7-2h-4l5,2Zm58,62c-4,1-7,3-7,5l5-1l14-3c9,0,9-1-2-2h-10v1Zm1,15l-9,10-7,8c-3,3-2,4,3,2l21-24-8,4Zm37,21c-5,6-8,14-3,10l7-11c0-2-2-1-4,1ZM412,153l7,10c8.811756,12.30072,15.878793,25.761742,21,40c4,4-3-15-9-25-7-13-19-29-19-26v1Zm-24,9c7,10,10,20,11,29c0,9-3,13-12,18l-7,3c-2,0-7,4-6,4c1,1,12-2,17-4c12-6,15-19,9-33-3-7-10-17-14-21l2,4Zm38,65l1,4-1,3c-1,2-2,3-5,4-5,2-2,4,4,2c3-1,3-2,4-6l-2-7-2-3l1,3Zm-46,5c-5,4-4,5,1,2c2-2,3-2,4-1c2,1,5,1,5-1s-3-4-5-4l-5,4Zm40,21c0,7-2,13-7,17-5.719917,5.27647-11.386868,10.610071-17,16-2,1-1,2,3,3c3,0,3,0,4-4l5-7l4-4l4,5c5,5,5,9,0,12-10,5-21,6-29,3l-10-3c-15-1-20-2-27-6-9-5-12-5-20-2-9,4-19,6-30,7-9,0-12,1-12,2l-1,3h15c12-1,15-1,24-4c12-5,16-5,23-2l17,4l19,6c6,3,8,3,13,3c8-1,21-6,24-9c4-4,5-7,1-14l-4-7l3-6c3-8,3-13-1-17l-2-3l1,7Z" fill="#e6e6e6" />
	<path d="M382,261l-11,4-7,3c-2,2,7,2,13,0c4-2,11-7,11-9c0-1-1-1-6,2Zm57,22c-1,12-4,16-18,24l-9,6c-2,3,16-4,22-9c5-3,9-11,9-17c0-5-2-11-3-11l-1,7Zm-88,19c3,2,15,5,25,7c5,1,7,4,6,8l-2,5c-2,3,0,3,3,0c2-2,3-3,3-6c0-8-5-10-24-14-3.666445.056971-7.333555.056971-11,0Zm4,10l9,9c2,0-2-6-4-8s-5-3-5-1Zm-43,4c-4,2-12,10-11,11l17-12c0-1-1-1-6,1Zm34,9c0,7-5,11-13,11-5,0-7,1-3,2c7,2,15-1,17-6v-9l-1,2Zm-71,41c-2,2-3,2-2,3c2,0,11-2,11-4c1-1-5-1-9,1Zm5,6l-7,5c-4,3-10,11-10,13s3,1,7-5c3-3,7-8,11-10c8-7,8-7,6-7l-7,4ZM116,122c-8,6-22,20-22,22l2,1c6.070823-7.237011,12.762989-13.929177,20-20l9-9-9,6ZM63,273l2,7c2,3,7,5,12,4c5,0,5-2,0-2s-10-4-12-10l-2-4v5Zm14-3l1,2c2,0,6,5,10,10c3,3,3,4,13,5l13,2c4,1,1-2-3-4l-11-2c-7,0-9-1-12-6-4-6-9-10-11-7Zm60,7l10,5-2-2-8-3Zm-9,5c3,6,8,8,13,7c4,0,5-2,1-2-3,0-9-3-13-6l-3-4l2,5ZM93,304c-4,2-15,12-13,12l7-4l8-7c4-2,2-3-3-1h1ZM60,332c4,14,26,42,43,53c10,7,18,9,31,10c16,1,31-3,44-11c5-3,6-4,4-6-2-1-4,0-12,3-13,6-19,8-30,9-12,0-19-1-31-7-19-8-36-26-46-46l-4-5h1Zm388,4c-2,6-8,14-13,21-7,8-25,25-39,36-11,9-13,11-11,13c4,2,38-27,49-41c6-7,12-18,15-25c2-8,2-10-1-4Z" fill="#e6e6e6" />
</svg>
